<svg xmlns="http://www.w3.org/2000/svg" viewBox="0 0 256 256" width="256" height="256">
  
  <defs>
    <filter id="drop-shadow" x="-20%" y="-20%" width="150%" height="150%">
      <feDropShadow dx="0" dy="8" stdDeviation="10" flood-color="#0F172A" flood-opacity="0.18"/>
    </filter>
    <filter id="soft-shadow" x="-30%" y="-30%" width="160%" height="160%">
      <feDropShadow dx="0" dy="12" stdDeviation="14" flood-color="#0F172A" flood-opacity="0.22"/>
    </filter>
    <filter id="glow-badge" x="-30%" y="-30%" width="160%" height="160%">
      <feDropShadow dx="0" dy="4" stdDeviation="6" flood-color="#2563EB" flood-opacity="0.3"/>
    </filter>
    <filter id="gold-shadow" x="-30%" y="-30%" width="160%" height="160%">
      <feDropShadow dx="0" dy="4" stdDeviation="6" flood-color="#D97706" flood-opacity="0.35"/>
    </filter>

    <linearGradient id="headsetGrad" x1="0" y1="0" x2="1" y2="1">
      <stop offset="0%" stop-color="#3B82F6"/>
      <stop offset="100%" stop-color="#1D4ED8"/>
    </linearGradient>
    <linearGradient id="chatBubble" x1="0" y1="0" x2="1" y2="1">
      <stop offset="0%" stop-color="#06B6D4"/>
      <stop offset="100%" stop-color="#0284C7"/>
    </linearGradient>
    <linearGradient id="earpad" x1="0" y1="0" x2="1" y2="1">
      <stop offset="0%" stop-color="#1E293B"/>
      <stop offset="100%" stop-color="#0F172A"/>
    </linearGradient>
  </defs>

  <ellipse cx="128" cy="226" rx="74" ry="12" fill="#0F172A" opacity="0.15" filter="blur(6px)"/>

  <g filter="url(#soft-shadow)">
    <path d="M 72 82 Q 72 62 92 62 L 164 62 Q 184 62 184 82 L 184 130 Q 184 150 164 150 L 126 150 L 102 172 L 108 150 L 92 150 Q 72 150 72 130 Z" fill="url(#chatBubble)"/>
    <path d="M 88 72 L 168 72" stroke="#67E8F9" stroke-width="2.5" stroke-linecap="round" opacity="0.6"/>

    <circle cx="106" cy="106" r="8" fill="#FFFFFF"/>
    <circle cx="128" cy="106" r="8" fill="#FFFFFF"/>
    <circle cx="150" cy="106" r="8" fill="#FFFFFF"/>
  </g>

  <g filter="url(#drop-shadow)">
    <path d="M 52 142 C 52 58, 204 58, 204 142" stroke="url(#headsetGrad)" stroke-width="14" fill="none" stroke-linecap="round"/>
    <path d="M 68 116 C 74 68, 182 68, 188 116" stroke="#93C5FD" stroke-width="3" fill="none" opacity="0.7"/>

    <rect x="38" y="128" width="26" height="52" rx="13" fill="url(#earpad)"/>
    <rect x="42" y="134" width="8" height="40" rx="4" fill="#3B82F6"/>

    <rect x="192" y="128" width="26" height="52" rx="13" fill="url(#earpad)"/>
    <rect x="206" y="134" width="8" height="40" rx="4" fill="#3B82F6"/>

    <path d="M 48 166 Q 52 208 100 206 L 118 206" stroke="#475569" stroke-width="6" fill="none" stroke-linecap="round"/>
    <rect x="114" y="198" width="22" height="16" rx="8" fill="url(#headsetGrad)"/>
    <circle cx="130" cy="206" r="3" fill="#38BDF8"/>
  </g>
</svg>