<svg xmlns="http://www.w3.org/2000/svg" viewBox="0 0 256 256" width="256" height="256">
  
  <defs>
    <filter id="drop-shadow" x="-20%" y="-20%" width="150%" height="150%">
      <feDropShadow dx="0" dy="8" stdDeviation="10" flood-color="#0F172A" flood-opacity="0.18"/>
    </filter>
    <filter id="soft-shadow" x="-30%" y="-30%" width="160%" height="160%">
      <feDropShadow dx="0" dy="12" stdDeviation="14" flood-color="#0F172A" flood-opacity="0.22"/>
    </filter>
    <filter id="glow-badge" x="-30%" y="-30%" width="160%" height="160%">
      <feDropShadow dx="0" dy="4" stdDeviation="6" flood-color="#2563EB" flood-opacity="0.3"/>
    </filter>
    <filter id="gold-shadow" x="-30%" y="-30%" width="160%" height="160%">
      <feDropShadow dx="0" dy="4" stdDeviation="6" flood-color="#D97706" flood-opacity="0.35"/>
    </filter>

    <linearGradient id="legalDoc" x1="0" y1="0" x2="0" y2="1">
      <stop offset="0%" stop-color="#FFFFFF"/>
      <stop offset="100%" stop-color="#F1F5F9"/>
    </linearGradient>
    <linearGradient id="goldScales" x1="0" y1="0" x2="1" y2="1">
      <stop offset="0%" stop-color="#FBBF24"/>
      <stop offset="50%" stop-color="#F59E0B"/>
      <stop offset="100%" stop-color="#B45309"/>
    </linearGradient>
  </defs>

  <ellipse cx="128" cy="226" rx="76" ry="12" fill="#0F172A" opacity="0.15" filter="blur(6px)"/>

  <g filter="url(#drop-shadow)">
    <rect x="68" y="32" width="120" height="168" rx="12" fill="url(#legalDoc)"/>
    <rect x="68" y="32" width="120" height="168" rx="12" fill="none" stroke="#E2E8F0" stroke-width="2"/>

    <rect x="86" y="48" width="84" height="8" rx="4" fill="#334155"/>
    <line x1="86" y1="64" x2="170" y2="64" stroke="#94A3B8" stroke-width="3"/>
    <line x1="86" y1="74" x2="160" y2="74" stroke="#CBD5E1" stroke-width="3"/>
    <line x1="86" y1="84" x2="170" y2="84" stroke="#CBD5E1" stroke-width="3"/>
    <line x1="86" y1="94" x2="140" y2="94" stroke="#CBD5E1" stroke-width="3"/>

    <circle cx="162" cy="168" r="14" fill="#EF4444"/>
    <path d="M 162 178 L 156 196 L 162 192 L 168 196 Z" fill="#B91C1C"/>
  </g>

  <g filter="url(#soft-shadow)">
    <rect x="124" y="80" width="8" height="114" rx="4" fill="url(#goldScales)"/>
    <path d="M 106 194 Q 128 186 150 194 L 154 200 L 102 200 Z" fill="url(#goldScales)"/>
    <circle cx="128" cy="80" r="8" fill="url(#goldScales)"/>

    <path d="M 68 96 Q 128 88 188 96" stroke="url(#goldScales)" stroke-width="6" stroke-linecap="round" fill="none"/>

    <line x1="68" y1="96" x2="52" y2="134" stroke="#B45309" stroke-width="2"/>
    <line x1="68" y1="96" x2="84" y2="134" stroke="#B45309" stroke-width="2"/>
    <path d="M 48 134 Q 68 152 88 134 Z" fill="url(#goldScales)"/>

    <line x1="188" y1="96" x2="172" y2="134" stroke="#B45309" stroke-width="2"/>
    <line x1="188" y1="96" x2="204" y2="134" stroke="#B45309" stroke-width="2"/>
    <path d="M 168 134 Q 188 152 208 134 Z" fill="url(#goldScales)"/>
  </g>

  <g filter="url(#gold-shadow)">
    <circle cx="68" cy="126" r="16" fill="url(#goldScales)"/>
    <circle cx="68" cy="126" r="14" fill="#D97706"/>
    <path d="M 62 120 L 74 120 M 62 124 L 73 124 M 62 120 L 62 128 Q 70 128 70 124 Q 70 120 62 120 M 66 128 L 74 135" 
          stroke="#FFFFFF" stroke-width="2.5" stroke-linecap="round" stroke-linejoin="round" fill="none"/>
  </g>
</svg>