<svg xmlns="http://www.w3.org/2000/svg" viewBox="0 0 256 256" width="256" height="256">
  
  <defs>
    <filter id="drop-shadow" x="-20%" y="-20%" width="150%" height="150%">
      <feDropShadow dx="0" dy="8" stdDeviation="10" flood-color="#0F172A" flood-opacity="0.18"/>
    </filter>
    <filter id="soft-shadow" x="-30%" y="-30%" width="160%" height="160%">
      <feDropShadow dx="0" dy="12" stdDeviation="14" flood-color="#0F172A" flood-opacity="0.22"/>
    </filter>
    <filter id="glow-badge" x="-30%" y="-30%" width="160%" height="160%">
      <feDropShadow dx="0" dy="4" stdDeviation="6" flood-color="#2563EB" flood-opacity="0.3"/>
    </filter>
    <filter id="gold-shadow" x="-30%" y="-30%" width="160%" height="160%">
      <feDropShadow dx="0" dy="4" stdDeviation="6" flood-color="#D97706" flood-opacity="0.35"/>
    </filter>

    <linearGradient id="trainBody" x1="0" y1="0" x2="1" y2="1">
      <stop offset="0%" stop-color="#FFFFFF"/>
      <stop offset="40%" stop-color="#F1F5F9"/>
      <stop offset="100%" stop-color="#CBD5E1"/>
    </linearGradient>
    <linearGradient id="trainStripe" x1="0" y1="0" x2="1" y2="0">
      <stop offset="0%" stop-color="#2563EB"/>
      <stop offset="100%" stop-color="#1D4ED8"/>
    </linearGradient>
    <linearGradient id="windshield" x1="0" y1="0" x2="1" y2="1">
      <stop offset="0%" stop-color="#1E293B"/>
      <stop offset="100%" stop-color="#0F172A"/>
    </linearGradient>
  </defs>

  <ellipse cx="128" cy="226" rx="76" ry="12" fill="#0F172A" opacity="0.16" filter="blur(6px)"/>

  <g stroke="#64748B" stroke-linecap="round">
    <line x1="72" y1="216" x2="184" y2="216" stroke-width="6"/>
    <line x1="84" y1="204" x2="172" y2="204" stroke-width="4"/>
    <line x1="96" y1="194" x2="160" y2="194" stroke-width="3"/>

    <line x1="68" y1="218" x2="114" y2="190" stroke-width="4"/>
    <line x1="188" y1="218" x2="142" y2="190" stroke-width="4"/>
  </g>

  <g filter="url(#soft-shadow)">
    <path d="M 94 62 Q 128 54 162 62 Q 186 96 186 160 Q 186 196 168 200 L 88 200 Q 70 196 70 160 Q 70 96 94 62 Z" fill="url(#trainBody)"/>

    <path d="M 72 138 Q 128 152 184 138 L 186 162 Q 128 180 70 162 Z" fill="url(#trainStripe)"/>

    <path d="M 88 88 Q 128 78 168 88 L 174 122 Q 128 138 82 122 Z" fill="url(#windshield)"/>
    <path d="M 94 94 Q 128 86 162 94" stroke="#38BDF8" stroke-width="3" stroke-linecap="round" fill="none" opacity="0.8"/>

    <ellipse cx="88" cy="180" rx="8" ry="5" fill="#FEF08A"/>
    <ellipse cx="168" cy="180" rx="8" ry="5" fill="#FEF08A"/>
    <circle cx="128" cy="164" r="8" fill="#F59E0B"/>
    <circle cx="128" cy="164" r="4" fill="#FFFFFF"/>

    <path d="M 86 200 L 128 214 L 170 200 Z" fill="#334155"/>
    <line x1="128" y1="200" x2="128" y2="214" stroke="#64748B" stroke-width="2"/>
  </g>

  <path d="M 120 56 L 128 42 L 136 56" stroke="#475569" stroke-width="4" stroke-linecap="round" fill="none"/>
  <line x1="116" y1="42" x2="140" y2="42" stroke="#475569" stroke-width="4" stroke-linecap="round"/>
</svg>