<svg xmlns="http://www.w3.org/2000/svg" viewBox="0 0 256 256" width="256" height="256">
  
  <defs>
    <filter id="drop-shadow" x="-20%" y="-20%" width="150%" height="150%">
      <feDropShadow dx="0" dy="8" stdDeviation="10" flood-color="#0F172A" flood-opacity="0.18"/>
    </filter>
    <filter id="soft-shadow" x="-30%" y="-30%" width="160%" height="160%">
      <feDropShadow dx="0" dy="12" stdDeviation="14" flood-color="#0F172A" flood-opacity="0.22"/>
    </filter>
    <filter id="glow-badge" x="-30%" y="-30%" width="160%" height="160%">
      <feDropShadow dx="0" dy="4" stdDeviation="6" flood-color="#2563EB" flood-opacity="0.3"/>
    </filter>
    <filter id="gold-shadow" x="-30%" y="-30%" width="160%" height="160%">
      <feDropShadow dx="0" dy="4" stdDeviation="6" flood-color="#D97706" flood-opacity="0.35"/>
    </filter>

    <linearGradient id="roofGrad2" x1="0" y1="0" x2="1" y2="1">
      <stop offset="0%" stop-color="#F97316"/>
      <stop offset="50%" stop-color="#EA580C"/>
      <stop offset="100%" stop-color="#9A3412"/>
    </linearGradient>
    <linearGradient id="wall3D" x1="0" y1="0" x2="1" y2="1">
      <stop offset="0%" stop-color="#FFFFFF"/>
      <stop offset="100%" stop-color="#E2E8F0"/>
    </linearGradient>
    <linearGradient id="treeGrad2" x1="0" y1="0" x2="1" y2="1">
      <stop offset="0%" stop-color="#34D399"/>
      <stop offset="50%" stop-color="#10B981"/>
      <stop offset="100%" stop-color="#047857"/>
    </linearGradient>
  </defs>

  <ellipse cx="128" cy="226" rx="76" ry="12" fill="#0F172A" opacity="0.15" filter="blur(6px)"/>

  <!-- Tropical Garden Shade Tree (Right) -->
  <g filter="url(#drop-shadow)">
    <path d="M 188 150 L 188 214 Q 194 218 200 214 L 200 150 Z" fill="#78350F"/>
    <circle cx="192" cy="116" r="34" fill="url(#treeGrad2)"/>
    <circle cx="214" cy="136" r="26" fill="url(#treeGrad2)"/>
    <circle cx="170" cy="136" r="26" fill="url(#treeGrad2)"/>
    <circle cx="192" cy="148" r="28" fill="url(#treeGrad2)"/>
    <circle cx="184" cy="108" r="16" fill="#6EE7B7" opacity="0.6"/>
  </g>

  <!-- 3D Luxury Modern Villa (Left/Center) -->
  <g filter="url(#soft-shadow)">
    <!-- Villa Base Structure -->
    <rect x="48" y="108" width="124" height="102" rx="10" fill="url(#wall3D)"/>
    
    <!-- Terracotta Sloped Pitched Roof -->
    <polygon points="110,54 186,108 34,108" fill="url(#roofGrad2)"/>
    <!-- Roof Overhang Eaves -->
    <rect x="30" y="106" width="160" height="8" rx="4" fill="#7C2D12"/>

    <!-- Triangular Attic Glass Window -->
    <polygon points="110,74 126,92 94,92" fill="#38BDF8"/>
    <polygon points="110,78 122,90 98,90" fill="#E0F2FE" opacity="0.7"/>

    <!-- Large Modern Balcony / Veranda Glass Window -->
    <rect x="62" y="126" width="42" height="42" rx="4" fill="#38BDF8"/>
    <line x1="83" y1="126" x2="83" y2="168" stroke="#FFFFFF" stroke-width="2.5"/>
    <line x1="62" y1="147" x2="104" y2="147" stroke="#FFFFFF" stroke-width="2.5"/>

    <!-- Balcony Railing -->
    <rect x="58" y="156" width="50" height="14" rx="2" fill="#E2E8F0" opacity="0.5"/>
    <line x1="58" y1="156" x2="108" y2="156" stroke="#475569" stroke-width="2"/>

    <!-- Modern Wooden Villa Front Door -->
    <rect x="120" y="138" width="34" height="72" rx="4" fill="#92400E"/>
    <circle cx="127" cy="174" r="3.5" fill="#FCD34D"/>
    <!-- Glass Panel on Door -->
    <rect x="126" y="146" width="22" height="18" rx="2" fill="#BAE6FD" opacity="0.8"/>

    <!-- Entrance Steps -->
    <rect x="114" y="206" width="46" height="6" rx="3" fill="#94A3B8"/>
  </g>
</svg>