<svg xmlns="http://www.w3.org/2000/svg" viewBox="0 0 256 256" width="256" height="256">
  <defs>
    <filter id="pendSoft" x="-20%" y="-10%" width="140%" height="140%">
      <feDropShadow dx="0" dy="14" stdDeviation="18" flood-color="rgba(0,0,0,0.15)" flood-opacity="1"/>
    </filter>
    <filter id="pendBadge" x="-20%" y="-20%" width="140%" height="160%">
      <feDropShadow dx="0" dy="8" stdDeviation="12" flood-color="#e65100" flood-opacity="0.22"/>
    </filter>
    <linearGradient id="pendDoc" x1="0%" y1="0%" x2="100%" y2="100%">
      <stop offset="0%" stop-color="#ffffff"/>
      <stop offset="100%" stop-color="#fff8ed"/>
    </linearGradient>
    <linearGradient id="pendBadgeGrad" x1="0%" y1="0%" x2="100%" y2="100%">
      <stop offset="0%" stop-color="#ffcc80"/>
      <stop offset="100%" stop-color="#FB8C00"/>
    </linearGradient>
    <radialGradient id="pendShine" cx="30%" cy="22%" r="55%">
      <stop offset="0%" stop-color="rgba(255,255,255,0.5)"/>
      <stop offset="100%" stop-color="rgba(255,255,255,0)"/>
    </radialGradient>
  </defs>
  <rect x="62" y="48" width="132" height="168" rx="16" fill="rgba(0,0,0,0.06)" transform="translate(4,10)"/>
  <rect x="62" y="38" width="132" height="170" rx="16" fill="url(#pendDoc)" filter="url(#pendSoft)"/>
  <polygon points="158,38 194,38 194,68" fill="#f8ead4" opacity="0.9"/>
  <polygon points="158,38 194,68 158,68" fill="#f0dcc0" opacity="0.55"/>
  <rect x="82" y="72" width="65" height="7" rx="3.5" fill="#f0d4a8" opacity="0.75"/>
  <rect x="82" y="90" width="90" height="5" rx="2.5" fill="#f5e4c4" opacity="0.65"/>
  <rect x="82" y="104" width="76" height="5" rx="2.5" fill="#f5e4c4" opacity="0.65"/>
  <rect x="82" y="118" width="82" height="5" rx="2.5" fill="#f5e4c4" opacity="0.65"/>
  <rect x="82" y="132" width="68" height="5" rx="2.5" fill="#f5e4c4" opacity="0.65"/>
  <rect x="62" y="38" width="132" height="170" rx="16" fill="url(#pendShine)"/>
  <circle cx="176" cy="170" r="36" fill="url(#pendBadgeGrad)" filter="url(#pendBadge)"/>
  <circle cx="176" cy="170" r="36" fill="url(#pendShine)" opacity="0.4"/>
  <circle cx="176" cy="170" r="16" fill="none" stroke="white" stroke-width="4"/>
  <line x1="176" y1="170" x2="176" y2="160" stroke="white" stroke-width="4" stroke-linecap="round"/>
  <line x1="176" y1="170" x2="186" y2="176" stroke="white" stroke-width="4" stroke-linecap="round"/>
  <circle cx="168" cy="160" r="10" fill="rgba(255,255,255,0.22)" opacity="0.6"/>
</svg>